<mxfile host="Electron" modified="2024-05-25T07:59:04.386Z" agent="Mozilla/5.0 (Macintosh; Intel Mac OS X 10_15_7) AppleWebKit/537.36 (KHTML, like Gecko) draw.io/24.4.8 Chrome/124.0.6367.207 Electron/30.0.6 Safari/537.36" etag="5ERauU0GkKEmBbNUjmdl" version="24.4.8" type="device">
  <diagram name="페이지-1" id="S7cuaf0W1tgo2khQaytz">
    <mxGraphModel dx="1114" dy="869" grid="1" gridSize="10" guides="1" tooltips="1" connect="1" arrows="1" fold="1" page="1" pageScale="1" pageWidth="827" pageHeight="1169" math="0" shadow="0">
      <root>
        <mxCell id="0" />
        <mxCell id="1" parent="0" />
        <mxCell id="FLVdxqUKbs6wB2Sln4xJ-1" value="Delivery&lt;div&gt;Tracking&lt;/div&gt;" style="rounded=0;whiteSpace=wrap;html=1;" vertex="1" parent="1">
          <mxGeometry x="190" y="120" width="80" height="50" as="geometry" />
        </mxCell>
        <mxCell id="FLVdxqUKbs6wB2Sln4xJ-3" value="Payment&lt;div&gt;Info&lt;/div&gt;" style="rounded=0;whiteSpace=wrap;html=1;fillColor=#d5e8d4;strokeColor=#82b366;" vertex="1" parent="1">
          <mxGeometry x="300" y="280" width="80" height="50" as="geometry" />
        </mxCell>
        <mxCell id="FLVdxqUKbs6wB2Sln4xJ-21" style="edgeStyle=orthogonalEdgeStyle;rounded=0;orthogonalLoop=1;jettySize=auto;html=1;entryX=0.5;entryY=0;entryDx=0;entryDy=0;endArrow=none;endFill=0;" edge="1" parent="1" source="FLVdxqUKbs6wB2Sln4xJ-4" target="FLVdxqUKbs6wB2Sln4xJ-7">
          <mxGeometry relative="1" as="geometry" />
        </mxCell>
        <mxCell id="FLVdxqUKbs6wB2Sln4xJ-4" value="Receiver&lt;div&gt;(받는 사람)&lt;/div&gt;" style="rounded=0;whiteSpace=wrap;html=1;" vertex="1" parent="1">
          <mxGeometry x="410" y="120" width="80" height="50" as="geometry" />
        </mxCell>
        <mxCell id="FLVdxqUKbs6wB2Sln4xJ-5" value="Member&lt;div&gt;Grade&lt;/div&gt;" style="rounded=0;whiteSpace=wrap;html=1;" vertex="1" parent="1">
          <mxGeometry x="520" y="280" width="80" height="50" as="geometry" />
        </mxCell>
        <mxCell id="FLVdxqUKbs6wB2Sln4xJ-25" style="edgeStyle=orthogonalEdgeStyle;rounded=0;orthogonalLoop=1;jettySize=auto;html=1;exitX=0.5;exitY=1;exitDx=0;exitDy=0;entryX=0.5;entryY=0;entryDx=0;entryDy=0;endArrow=none;endFill=0;" edge="1" parent="1" source="FLVdxqUKbs6wB2Sln4xJ-6" target="FLVdxqUKbs6wB2Sln4xJ-5">
          <mxGeometry relative="1" as="geometry" />
        </mxCell>
        <mxCell id="FLVdxqUKbs6wB2Sln4xJ-6" value="Member" style="rounded=0;whiteSpace=wrap;html=1;" vertex="1" parent="1">
          <mxGeometry x="520" y="200" width="80" height="50" as="geometry" />
        </mxCell>
        <mxCell id="FLVdxqUKbs6wB2Sln4xJ-23" style="edgeStyle=orthogonalEdgeStyle;rounded=0;orthogonalLoop=1;jettySize=auto;html=1;endArrow=none;endFill=0;" edge="1" parent="1" source="FLVdxqUKbs6wB2Sln4xJ-7" target="FLVdxqUKbs6wB2Sln4xJ-6">
          <mxGeometry relative="1" as="geometry" />
        </mxCell>
        <mxCell id="FLVdxqUKbs6wB2Sln4xJ-7" value="Orderer&lt;div&gt;(주문자)&lt;/div&gt;" style="rounded=0;whiteSpace=wrap;html=1;fillColor=#d5e8d4;strokeColor=#82b366;" vertex="1" parent="1">
          <mxGeometry x="410" y="200" width="80" height="50" as="geometry" />
        </mxCell>
        <mxCell id="FLVdxqUKbs6wB2Sln4xJ-19" style="edgeStyle=orthogonalEdgeStyle;rounded=0;orthogonalLoop=1;jettySize=auto;html=1;entryX=0.5;entryY=0;entryDx=0;entryDy=0;endArrow=none;endFill=0;" edge="1" parent="1" source="FLVdxqUKbs6wB2Sln4xJ-8" target="FLVdxqUKbs6wB2Sln4xJ-9">
          <mxGeometry relative="1" as="geometry" />
        </mxCell>
        <mxCell id="FLVdxqUKbs6wB2Sln4xJ-8" value="Address" style="rounded=0;whiteSpace=wrap;html=1;" vertex="1" parent="1">
          <mxGeometry x="300" y="40" width="80" height="50" as="geometry" />
        </mxCell>
        <mxCell id="FLVdxqUKbs6wB2Sln4xJ-20" style="edgeStyle=orthogonalEdgeStyle;rounded=0;orthogonalLoop=1;jettySize=auto;html=1;exitX=1;exitY=0.5;exitDx=0;exitDy=0;entryX=0;entryY=0.5;entryDx=0;entryDy=0;endArrow=none;endFill=0;" edge="1" parent="1" source="FLVdxqUKbs6wB2Sln4xJ-9" target="FLVdxqUKbs6wB2Sln4xJ-4">
          <mxGeometry relative="1" as="geometry" />
        </mxCell>
        <mxCell id="FLVdxqUKbs6wB2Sln4xJ-9" value="Shipping&lt;div&gt;Info&lt;/div&gt;&lt;div&gt;(배송지 정보)&lt;/div&gt;" style="rounded=0;whiteSpace=wrap;html=1;" vertex="1" parent="1">
          <mxGeometry x="300" y="120" width="80" height="50" as="geometry" />
        </mxCell>
        <mxCell id="FLVdxqUKbs6wB2Sln4xJ-18" style="edgeStyle=orthogonalEdgeStyle;rounded=0;orthogonalLoop=1;jettySize=auto;html=1;entryX=0.5;entryY=1;entryDx=0;entryDy=0;endArrow=none;endFill=0;" edge="1" parent="1" source="FLVdxqUKbs6wB2Sln4xJ-10" target="FLVdxqUKbs6wB2Sln4xJ-9">
          <mxGeometry relative="1" as="geometry" />
        </mxCell>
        <mxCell id="FLVdxqUKbs6wB2Sln4xJ-22" style="edgeStyle=orthogonalEdgeStyle;rounded=0;orthogonalLoop=1;jettySize=auto;html=1;entryX=0;entryY=0.5;entryDx=0;entryDy=0;endArrow=none;endFill=0;" edge="1" parent="1" source="FLVdxqUKbs6wB2Sln4xJ-10" target="FLVdxqUKbs6wB2Sln4xJ-7">
          <mxGeometry relative="1" as="geometry" />
        </mxCell>
        <mxCell id="FLVdxqUKbs6wB2Sln4xJ-26" style="edgeStyle=orthogonalEdgeStyle;rounded=0;orthogonalLoop=1;jettySize=auto;html=1;entryX=0.5;entryY=0;entryDx=0;entryDy=0;endArrow=none;endFill=0;" edge="1" parent="1" source="FLVdxqUKbs6wB2Sln4xJ-10" target="FLVdxqUKbs6wB2Sln4xJ-3">
          <mxGeometry relative="1" as="geometry" />
        </mxCell>
        <mxCell id="FLVdxqUKbs6wB2Sln4xJ-27" style="edgeStyle=orthogonalEdgeStyle;rounded=0;orthogonalLoop=1;jettySize=auto;html=1;entryX=1;entryY=0.5;entryDx=0;entryDy=0;endArrow=none;endFill=0;" edge="1" parent="1" source="FLVdxqUKbs6wB2Sln4xJ-10" target="FLVdxqUKbs6wB2Sln4xJ-17">
          <mxGeometry relative="1" as="geometry" />
        </mxCell>
        <mxCell id="FLVdxqUKbs6wB2Sln4xJ-29" style="rounded=0;orthogonalLoop=1;jettySize=auto;html=1;exitX=0;exitY=0;exitDx=0;exitDy=0;entryX=1;entryY=1;entryDx=0;entryDy=0;endArrow=none;endFill=0;" edge="1" parent="1" source="FLVdxqUKbs6wB2Sln4xJ-10" target="FLVdxqUKbs6wB2Sln4xJ-1">
          <mxGeometry relative="1" as="geometry" />
        </mxCell>
        <mxCell id="FLVdxqUKbs6wB2Sln4xJ-10" value="Order&lt;div&gt;(주문)&lt;/div&gt;" style="rounded=0;whiteSpace=wrap;html=1;fillColor=#dae8fc;strokeColor=#6c8ebf;" vertex="1" parent="1">
          <mxGeometry x="300" y="200" width="80" height="50" as="geometry" />
        </mxCell>
        <mxCell id="FLVdxqUKbs6wB2Sln4xJ-14" value="Category" style="rounded=0;whiteSpace=wrap;html=1;" vertex="1" parent="1">
          <mxGeometry x="80" y="120" width="80" height="50" as="geometry" />
        </mxCell>
        <mxCell id="FLVdxqUKbs6wB2Sln4xJ-15" value="Review" style="rounded=0;whiteSpace=wrap;html=1;" vertex="1" parent="1">
          <mxGeometry x="80" y="280" width="80" height="50" as="geometry" />
        </mxCell>
        <mxCell id="FLVdxqUKbs6wB2Sln4xJ-31" style="edgeStyle=orthogonalEdgeStyle;rounded=0;orthogonalLoop=1;jettySize=auto;html=1;entryX=0.5;entryY=0;entryDx=0;entryDy=0;endArrow=none;endFill=0;" edge="1" parent="1" source="FLVdxqUKbs6wB2Sln4xJ-16" target="FLVdxqUKbs6wB2Sln4xJ-15">
          <mxGeometry relative="1" as="geometry" />
        </mxCell>
        <mxCell id="FLVdxqUKbs6wB2Sln4xJ-32" style="edgeStyle=orthogonalEdgeStyle;rounded=0;orthogonalLoop=1;jettySize=auto;html=1;exitX=0.5;exitY=0;exitDx=0;exitDy=0;entryX=0.5;entryY=1;entryDx=0;entryDy=0;endArrow=none;endFill=0;" edge="1" parent="1" source="FLVdxqUKbs6wB2Sln4xJ-16" target="FLVdxqUKbs6wB2Sln4xJ-14">
          <mxGeometry relative="1" as="geometry" />
        </mxCell>
        <mxCell id="FLVdxqUKbs6wB2Sln4xJ-16" value="Product&lt;div&gt;(상품)&lt;/div&gt;" style="rounded=0;whiteSpace=wrap;html=1;fillColor=#d5e8d4;strokeColor=#82b366;" vertex="1" parent="1">
          <mxGeometry x="80" y="200" width="80" height="50" as="geometry" />
        </mxCell>
        <mxCell id="FLVdxqUKbs6wB2Sln4xJ-28" style="edgeStyle=orthogonalEdgeStyle;rounded=0;orthogonalLoop=1;jettySize=auto;html=1;exitX=0.5;exitY=0;exitDx=0;exitDy=0;entryX=0.5;entryY=1;entryDx=0;entryDy=0;endArrow=none;endFill=0;" edge="1" parent="1" source="FLVdxqUKbs6wB2Sln4xJ-17" target="FLVdxqUKbs6wB2Sln4xJ-1">
          <mxGeometry relative="1" as="geometry" />
        </mxCell>
        <mxCell id="FLVdxqUKbs6wB2Sln4xJ-30" style="edgeStyle=orthogonalEdgeStyle;rounded=0;orthogonalLoop=1;jettySize=auto;html=1;exitX=0;exitY=0.5;exitDx=0;exitDy=0;entryX=1;entryY=0.5;entryDx=0;entryDy=0;endArrow=none;endFill=0;" edge="1" parent="1" source="FLVdxqUKbs6wB2Sln4xJ-17" target="FLVdxqUKbs6wB2Sln4xJ-16">
          <mxGeometry relative="1" as="geometry" />
        </mxCell>
        <mxCell id="FLVdxqUKbs6wB2Sln4xJ-17" value="OrderLine&lt;div&gt;(주문 항목)&lt;/div&gt;" style="rounded=0;whiteSpace=wrap;html=1;" vertex="1" parent="1">
          <mxGeometry x="190" y="200" width="80" height="50" as="geometry" />
        </mxCell>
      </root>
    </mxGraphModel>
  </diagram>
</mxfile>
